<svg xmlns="http://www.w3.org/2000/svg" width="1500" height="780" viewBox="0 0 1500 780"><rect width="1500" height="780" fill="#0b0d12"/><style>text{font-family:Arial,sans-serif;fill:#f5f7fb}.h{font-size:34px;font-weight:700}.s{font-size:18px;fill:#aab2bf}.t{font-size:18px;font-weight:700}.n{fill:#141a24;stroke:#5e6f88;stroke-width:2}.hot{fill:#25140e;stroke:#ff9a58;stroke-width:2}.human{fill:#101e19;stroke:#6dd7a2;stroke-width:2}.a{stroke:#9aa6b8;stroke-width:3;fill:none;marker-end:url(#m)}</style><defs><marker id="m" markerWidth="10" markerHeight="10" refX="8" refY="3" orient="auto"><path d="M0,0 L0,6 L9,3 z" fill="#9aa6b8"/></marker></defs><text class="h" x="55" y="58">FlowForge AVA — Critical Paths</text><text class="s" x="55" y="90">Implemented portfolio paths with fresh verification gates · not production-SLA evidence</text><text class="t" x="55" y="150">HOT LEAD PATH</text>
<rect class="n" x="55" y="180" rx="14" width="190" height="85"/><text class="t" x="88" y="215">Lead message</text><text class="s" x="84" y="242">memory + context</text><rect class="n" x="295" y="180" rx="14" width="200" height="85"/><text class="t" x="334" y="215">Qualification</text><text class="s" x="326" y="242">7-field flow</text><rect class="n" x="545" y="180" rx="14" width="210" height="85"/><text class="t" x="576" y="215">CRM upsert</text><text class="s" x="578" y="242">persist priority</text><rect class="hot" x="805" y="180" rx="14" width="210" height="85"/><text class="t" x="844" y="215">HOT gate</text><text class="s" x="832" y="242">persisted record</text><rect class="hot" x="1065" y="180" rx="14" width="290" height="85"/><text class="t" x="1110" y="215">Admin HOT alert</text><text class="s" x="1108" y="242">fresh rerun pending</text><path class="a" d="M245 223 H295"/><path class="a" d="M495 223 H545"/><path class="a" d="M755 223 H805"/><path class="a" d="M1015 223 H1065"/>
<text class="t" x="55" y="385">HUMAN HANDOFF PATH</text><rect class="n" x="55" y="415" rx="14" width="210" height="85"/><text class="t" x="87" y="450">Handoff trigger</text><text class="s" x="83" y="477">request / failure / case</text><rect class="human" x="315" y="415" rx="14" width="230" height="85"/><text class="t" x="350" y="450">Summarize context</text><text class="s" x="351" y="477">lead + conversation</text><rect class="human" x="595" y="415" rx="14" width="220" height="85"/><text class="t" x="625" y="450">Notify user</text><text class="s" x="622" y="477">safe takeover msg</text><rect class="human" x="865" y="415" rx="14" width="220" height="85"/><text class="t" x="894" y="450">Notify admin</text><text class="s" x="900" y="477">context alert</text><rect class="human" x="1135" y="415" rx="14" width="220" height="85"/><text class="t" x="1167" y="450">Persist marker</text><text class="s" x="1165" y="477">avoid instant restart</text><path class="a" d="M265 458 H315"/><path class="a" d="M545 458 H595"/><path class="a" d="M815 458 H865"/><path class="a" d="M1085 458 H1135"/>
<rect x="55" y="590" rx="16" width="1300" height="120" fill="#111620" stroke="#354052" stroke-width="2"/><text class="t" x="85" y="630">FRESH VERIFICATION GATE</text><text class="s" x="85" y="662">Prove persistence before success, correct HOT branching, no unintended duplicate side effects, explicit human-request routing, preserved handoff context, and safe tool/provider failure behavior.</text><text class="s" x="85" y="692">Current classification remains: verified portfolio build with limitations — production-oriented, not production-ready.</text></svg>